# xmcd
#
# Track frame offsets:
#	150
#	15216
#	27057
#	37084
#	50263
#	64828
#	78053
#	89642
#	104869
#	120366
#	134886
#	147362
#	160424
#	178309
#	188401
#	202441
#	216245
#	229082
#	242393
#	256346
#
# Disc length: 3596 seconds
#
# Revision: 1
# Processed by: cddbd v1.5.2PL0 Copyright (c) Steve Scherf et al.
# Submitted via: EasyCDDAExtractor 12.0.1.1
#
DISCID=200e0a14
DTITLE=Don Williams - Images [Cassette]
DYEAR=1978
DGENRE=Country
TTITLE0=I Recall a Gypsy Woman
TTITLE1=Don't You Believe
TTITLE2=Fly Away
TTITLE3=Goodbye isn't Really Good At All
TTITLE4=My Womans Love
TTITLE5=Reason To Be
TTITLE6=Such a Lovely Lady
TTITLE7=Tempted
TTITLE8=Till The Rivers All Run Dry
TTITLE9=She's In Love With A Rodeo Man
TTITLE10=You're My Best Friend
TTITLE11=Where Are You
TTITLE12=Where The Arkansas River Leaves Oklahoma
TTITLE13=Why Lord Goodbye
TTITLE14=Cup O'Tea
TTITLE15=Amanda
TTITLE16=Atta Way To Go
TTITLE17=In The Shelter Of Your Eyes
TTITLE18=We Should Be Together
TTITLE19=I Wouldn't Want To Live (if you didn't love me)
EXTD=
EXTT0=
EXTT1=
EXTT2=
EXTT3=
EXTT4=
EXTT5=
EXTT6=
EXTT7=
EXTT8=
EXTT9=
EXTT10=
EXTT11=
EXTT12=
EXTT13=
EXTT14=
EXTT15=
EXTT16=
EXTT17=
EXTT18=
EXTT19=
PLAYORDER=
